<svg xmlns="http://www.w3.org/2000/svg" viewBox="0 0 262 358" fill="none" stroke-linecap="round" stroke-linejoin="round"><defs><filter id="r" x="-5%" y="-5%" width="110%" height="110%"><feTurbulence type="fractalNoise" baseFrequency="0.035" numOctaves="2" seed="17"/><feDisplacementMap in="SourceGraphic" scale="3.5"/></filter></defs><g filter="url(#r)"><path d="M50 60 C 120 20, 220 50, 190 90 S 60 90, 70 120 S 210 110, 200 150 S 40 140, 60 175 S 200 165, 180 195 S 100 190, 120 214" stroke="#111" stroke-width="6.5"/><path d="M120 214 C 124 230, 100 236, 104 250 L104 330" stroke="#111" stroke-width="7.8"/><path d="M120 214 C 130 232, 131 240, 131 252 L131 330" stroke="#2d54dd" stroke-width="7.8"/><path d="M120 214 C 140 228, 158 236, 158 252 L158 330" stroke="#111" stroke-width="7.8"/><path d="M94 332 L168 332" stroke="#9a9a9a" stroke-width="5.2"/></g></svg>
